<svg width="16" height="15" viewBox="0 0 16 15" fill="none" xmlns="http://www.w3.org/2000/svg">
<path d="M4.87695 13.7933C4.87674 13.6822 4.78692 13.5924 4.67578 13.5922C4.56449 13.5922 4.47385 13.6821 4.47363 13.7933C4.47363 13.9047 4.56436 13.9954 4.67578 13.9954C4.78705 13.9952 4.87695 13.9046 4.87695 13.7933ZM12.5967 13.7933C12.5965 13.6821 12.5058 13.5922 12.3945 13.5922C12.2833 13.5923 12.1936 13.6822 12.1934 13.7933C12.1934 13.9046 12.2832 13.9953 12.3945 13.9954C12.506 13.9954 12.5967 13.9047 12.5967 13.7933ZM1.90332 0C2.13911 0 2.3432 0.164893 2.39258 0.395378L3.05957 3.50764H14.5635C14.715 3.50773 14.8583 3.57691 14.9531 3.69507C15.0479 3.81329 15.0836 3.96794 15.0508 4.11583L13.8936 9.32799C13.8003 9.75051 13.5656 10.1285 13.2285 10.3999C12.8912 10.6714 12.4711 10.8199 12.0381 10.8207H5.17383V10.8197C4.73511 10.8269 4.30741 10.6836 3.96289 10.4116C3.61546 10.1372 3.37412 9.75002 3.28125 9.31725L2.16797 4.12169C2.16592 4.11296 2.16369 4.10424 2.16211 4.09533L1.5 0.999671H0.5C0.223858 0.999671 0 0.775887 0 0.499836C0 0.223784 0.223858 0 0.5 0H1.90332ZM4.25879 9.10833C4.30288 9.31343 4.41746 9.49658 4.58203 9.62672C4.74682 9.75686 4.95215 9.82556 5.16211 9.82099H12.0361C12.2417 9.82064 12.4414 9.75073 12.6016 9.62184C12.7617 9.49293 12.8728 9.31293 12.917 9.11224V9.11126L13.9404 4.50731H3.27344L4.25879 9.10833ZM5.87695 13.7933C5.87695 14.4567 5.33933 14.9949 4.67578 14.9951C4.01207 14.9951 3.47363 14.4568 3.47363 13.7933C3.47385 13.13 4.0122 12.5925 4.67578 12.5925C5.3392 12.5927 5.87674 13.1301 5.87695 13.7933ZM13.5967 13.7933C13.5967 14.4568 13.0582 14.9951 12.3945 14.9951C11.7309 14.995 11.1934 14.4567 11.1934 13.7933C11.1936 13.1301 11.731 12.5927 12.3945 12.5925C13.0581 12.5925 13.5965 13.13 13.5967 13.7933Z" fill="white" fill-opacity="0.6"/>
</svg>
