<svg width="26" height="24" viewBox="0 0 26 24" fill="none" xmlns="http://www.w3.org/2000/svg">
<path d="M10.8425 1.00049L7.94775 7.94786L12.5793 23.0005M12.5793 23.0005L17.2109 7.94786L14.3162 1.00049M12.5793 23.0005C12.9466 23.0005 13.308 22.9131 13.6349 22.7456C13.9618 22.5781 14.2441 22.3353 14.4586 22.0371L23.7102 9.31649C24.0037 8.91591 24.1608 8.43157 24.158 7.93495C24.1553 7.43833 23.993 6.95573 23.6951 6.55838L20.2214 1.9268C20.0057 1.63919 19.726 1.40575 19.4045 1.24497C19.0829 1.08419 18.7283 1.00049 18.3688 1.00049H6.78986C6.42966 1.00053 6.07443 1.0846 5.75242 1.24601C5.43041 1.40742 5.15049 1.64171 4.93491 1.93028L1.46354 6.55838C1.16545 6.95561 1.00296 7.43814 1.00004 7.93476C0.997121 8.43138 1.15393 8.91579 1.44733 9.31649L10.6989 22.0371C10.9134 22.3353 11.1957 22.5781 11.5226 22.7456C11.8495 22.9131 12.2121 23.0005 12.5793 23.0005ZM1.00038 7.94786H24.1583" stroke="white" stroke-width="2" stroke-linecap="round" stroke-linejoin="round"/>
</svg>
