<svg width="24" height="24" viewBox="0 0 24 24" fill="none" xmlns="http://www.w3.org/2000/svg">
<path d="M12 0L14.2673 3.53849L18 1.6077L18.1943 5.80575L22.3923 6L20.4615 9.73275L24 12L20.4615 14.2673L22.3923 18L18.1943 18.1943L18 22.3923L14.2673 20.4615L12 24L9.73275 20.4615L6 22.3923L5.80575 18.1943L1.6077 18L3.53849 14.2673L0 12L3.53849 9.73275L1.6077 6L5.80575 5.80575L6 1.6077L9.73275 3.53849L12 0Z" fill="#680BE2"/>
<path d="M11.9985 7.09375C12.3123 8.47091 12.94 9.58986 13.8816 10.4506C14.8231 11.3113 15.2939 12.2581 15.2939 13.291C15.2939 14.2498 14.9467 15.1693 14.3287 15.8472C13.7107 16.5252 12.8725 16.906 11.9985 16.906C11.1245 16.906 10.2863 16.5252 9.66831 15.8472C9.05031 15.1693 8.70313 14.2498 8.70312 13.291C8.70312 12.7323 8.86831 12.1886 9.17389 11.7417C9.17389 12.0841 9.29789 12.4125 9.5186 12.6546C9.73932 12.8967 10.0387 13.0328 10.3508 13.0328C10.6629 13.0328 10.9623 12.8967 11.183 12.6546C11.4037 12.4125 11.5277 12.0841 11.5277 11.7417C11.5277 10.7088 10.8216 10.1924 10.8216 9.1595C10.8216 8.47091 11.2139 7.78233 11.9985 7.09375Z" stroke="black" stroke-linecap="round" stroke-linejoin="round"/>
</svg>
