<svg width="27" height="24" viewBox="0 0 27 24" fill="none" xmlns="http://www.w3.org/2000/svg">
<path d="M10.7162 12.4779L3.0723 14.1081C2.7756 14.1725 2.46548 14.1175 2.20901 13.955C1.95254 13.7925 1.77035 13.5356 1.70184 13.2398L1.03764 10.5805C0.959552 10.2601 1.0039 9.9221 1.16199 9.63269C1.32008 9.34327 1.58053 9.1233 1.89232 9.01587L18.5951 3.52414M15.0391 11.5552L20.3972 10.4123M18.0571 23L14.2166 15.319M5.88372 7.70355L7.2616 13.2151M8.16205 23L12.0026 15.319M18.6569 4.37264C18.4979 3.73624 18.5982 3.06276 18.9357 2.50028C19.2732 1.9378 19.8203 1.5324 20.4566 1.37321L21.8048 1.03678C22.1228 0.957447 22.4593 1.00759 22.7404 1.17619C23.0215 1.34479 23.2242 1.61807 23.3039 1.93599L25.1778 9.43146C25.2575 9.74966 25.2075 10.0865 25.0389 10.3679C24.8702 10.6492 24.5967 10.8521 24.2786 10.9318L22.9304 11.2682C22.294 11.4272 21.6205 11.327 21.058 10.9895C20.4955 10.652 20.0901 10.1049 19.9309 9.46857L18.6569 4.37264ZM15.5833 13.105C15.5833 14.4712 14.4758 15.5787 13.1096 15.5787C11.7433 15.5787 10.6358 14.4712 10.6358 13.105C10.6358 11.7388 11.7433 10.6312 13.1096 10.6312C14.4758 10.6312 15.5833 11.7388 15.5833 13.105Z" stroke="white" stroke-width="2" stroke-linecap="round" stroke-linejoin="round"/>
</svg>
